<svg width="394" height="389" xmlns="http://www.w3.org/2000/svg" xmlns:xlink="http://www.w3.org/1999/xlink" xml:space="preserve" overflow="hidden"><defs><clipPath id="clip0"><rect x="443" y="118" width="394" height="389"/></clipPath></defs><g clip-path="url(#clip0)" transform="translate(-443 -118)"><path d="M0 0C240.706 0 481.411 0 729.407 0 729.407 240.706 729.407 481.411 729.407 729.407 488.701 729.407 247.996 729.407 0 729.407 0 488.701 0 247.996 0 0Z" fill="#FDFEFD" transform="matrix(1.00051 0 0 1 257.833 -27.8887)"/><path d="M518.563 307.719C518.563 308.186 518.563 308.659 518.563 309.143 518.173 309.143 517.778 309.149 517.372 309.149 499.503 309.978 481.311 318.999 467.989 330.513 466.942 331.414 466.942 331.414 465.874 332.338 464.021 333.963 462.229 335.643 460.465 337.363 459.497 338.292 458.5 339.194 457.499 340.09 452.819 344.826 452.524 348.749 452.485 355.093 452.418 362.867 449.791 368.666 445.156 374.826 443.447 377.275 442.073 379.846 440.654 382.467 436.074 390.803 429.908 397.314 423.113 403.881 441.422 395.622 456.414 379.028 463.893 360.446 466.28 354.035 467.939 347.625 468.434 340.797 468.918 336.912 469.897 335.232 472.886 332.694 474.31 331.687 475.768 330.724 477.249 329.8 478.423 329.06 478.423 329.06 479.619 328.303 485.379 324.814 485.379 324.814 487.221 324.814 488.429 350.53 479.853 375.522 462.602 394.754 462.062 395.338 461.517 395.923 460.96 396.524 459.636 397.971 458.406 399.462 457.17 400.987 442.457 417.804 416.557 428.65 394.576 430.77 392.929 430.848 391.282 430.904 389.634 430.948 389.05 430.976 388.471 430.999 387.87 431.026 363.546 432.056 339.784 425.456 320.54 410.291 319.6 409.568 319.6 409.568 318.637 408.828 317.129 407.659 315.626 406.491 314.129 405.305 310.468 408.266 307.351 411.454 304.268 415.016 302.972 416.441 301.692 417.559 300.195 418.75 297.885 421.716 298.191 423.742 298.52 427.387 298.364 432.924 294.084 436.33 290.395 439.964 289.811 440.542 289.226 441.127 288.62 441.728 287.384 442.958 286.149 444.187 284.908 445.412 283.027 447.27 281.146 449.14 279.271 451.016 278.069 452.212 276.861 453.409 275.659 454.611 275.102 455.161 274.546 455.712 273.973 456.286 271.496 458.729 269.003 461.116 266.366 463.392 263.349 465.996 260.545 468.784 257.745 471.617 257.211 472.151 256.683 472.685 256.132 473.236 254.451 474.928 252.77 476.62 251.09 478.317 248.875 480.554 246.655 482.786 244.434 485.017 243.939 485.524 243.438 486.025 242.926 486.542 239.715 489.77 236.382 492.803 232.926 495.769 232.086 496.526 232.086 496.526 231.223 497.294 230.783 497.689 230.349 498.078 229.899 498.484 229.453 498.885 229.008 499.286 228.552 499.698 224.172 503.187 219.019 502.781 213.693 502.18 208.184 500.293 204.912 496.576 202.296 491.495 200.276 487.01 200.198 482.93 201.812 478.267 203.921 473.214 207.856 469.781 211.735 466.074 212.464 465.362 213.193 464.644 213.922 463.932 216.81 461.105 219.72 458.339 222.787 455.701 226.198 452.735 229.364 449.541 232.547 446.33 233.176 445.701 233.8 445.072 234.445 444.421 236.432 442.429 238.418 440.426 240.405 438.428 243.021 435.79 245.642 433.158 248.263 430.525 248.853 429.93 249.448 429.329 250.055 428.717 253.104 425.656 256.204 422.723 259.482 419.908 260.995 418.589 262.409 417.192 263.811 415.756 264.329 415.227 264.841 414.704 265.375 414.165 266.427 413.085 267.484 412 268.541 410.915 269.048 410.397 269.56 409.88 270.088 409.345 270.545 408.872 271.001 408.405 271.469 407.926 272.826 406.719 273.973 405.962 275.665 405.305 277.05 405.494 278.425 405.706 279.805 405.928 283.416 406.029 285.208 405.311 287.785 402.901 290.128 400.458 292.315 397.887 294.463 395.272 295.938 393.519 297.518 391.933 299.171 390.347 297.974 387.798 296.494 385.472 294.986 383.09 292.704 379.451 290.818 375.806 289.198 371.827 291.024 370.903 292.849 369.985 294.674 369.066 295.186 368.805 295.704 368.549 296.233 368.276 298.837 366.968 301.425 365.727 304.157 364.703 304.608 365.444 305.053 366.184 305.515 366.946 309.015 372.672 312.582 378.132 316.979 383.224 317.452 383.797 317.919 384.37 318.409 384.96 326.539 394.531 340.101 405.3 352.594 408.154 357.23 408.143 361.487 406.847 365.816 405.305 366.434 405.088 367.052 404.866 367.686 404.643 377.069 401.176 385.01 396.284 392.484 389.634 393.368 388.905 393.368 388.905 394.27 388.154 401.877 381.704 407.425 373.591 412.656 365.182 413.853 363.279 413.853 363.279 414.565 362.567 416.48 362.283 418.388 362.032 420.308 361.81 421.121 361.715 421.121 361.715 421.944 361.615 423.286 361.454 424.621 361.298 425.962 361.142 422.189 378.326 404.242 395.539 390.258 404.682 384.398 408.216 377.809 410.948 371.114 412.428 382.667 415.628 393.513 412.567 403.881 407.442 404.743 407.036 405.611 406.635 406.474 406.229 417.376 400.798 425.723 392.306 434.109 383.658 434.944 382.795 435.795 381.938 436.647 381.087 436.163 381.293 435.679 381.498 435.183 381.71 430.487 383.585 426.714 384.247 421.688 383.936 426.658 368.165 434.015 352.633 444.482 339.773 444.811 339.366 445.145 338.96 445.484 338.543 458.311 322.861 475.095 310.473 495.568 307.201 503.198 306.567 510.983 306.617 518.563 307.719Z" fill="#193C73" transform="matrix(1.00051 0 0 1 257.833 -27.8887)"/><path d="M423.825 227.227C423.825 227.695 423.825 228.168 423.825 228.652 423.085 229.014 422.345 229.375 421.583 229.748 420.581 230.244 419.574 230.739 418.572 231.234 418.049 231.49 417.526 231.746 416.986 232.008 414.059 233.46 411.377 235.018 408.689 236.888 404.743 239.353 401.176 238.736 396.757 237.912 389.028 236.549 384.047 237.539 376.813 240.761 375.594 241.307 375.594 241.307 374.353 241.858 363.084 247.189 351.798 255.286 343.835 264.935 342.31 266.783 340.707 268.547 339.105 270.322 337.675 271.908 337.675 271.908 336.211 273.528 345.376 273.878 345.376 273.878 354.731 274.24 353.941 277.412 352.995 278.464 350.858 280.873 346.066 286.427 342.121 292.515 338.27 298.742 337.825 299.455 337.38 300.172 336.923 300.907 336.539 301.536 336.161 302.17 335.766 302.821 335.282 303.484 335.282 303.484 334.786 304.157 334.319 304.157 333.846 304.157 333.362 304.157 333.128 295.459 332.894 286.761 332.649 277.801 331.136 279.861 329.622 281.914 328.064 284.034 327.14 285.286 326.216 286.538 325.293 287.785 323.807 289.799 322.327 291.814 320.863 293.84 315.265 301.486 308.793 308.219 302.02 314.842 301.553 314.608 301.08 314.374 300.595 314.129 300.901 313.723 301.202 313.317 301.514 312.894 305.014 308.075 307.763 303.061 310.434 297.746 311.308 296.038 312.187 294.329 313.061 292.615 313.489 291.792 313.912 290.963 314.352 290.111 324.541 270.339 336.801 253.071 356.156 241.474 335.872 247.267 317.986 262.437 307.719 280.651 303.506 288.469 300.312 296.177 298.458 304.869 298.308 305.526 298.158 306.183 298.002 306.862 297.251 310.29 297.251 310.29 297.09 313.784 297.128 315.81 297.028 317.207 296.322 319.116 292.053 323.517 286.338 326.834 280.651 329.088 280.183 329.088 279.71 329.088 279.226 329.088 278.074 298.815 288.603 272.682 308.837 250.4 337.547 219.637 385.544 211.067 423.825 227.227Z" fill="#183B71" transform="matrix(1.00051 0 0 1 257.833 -27.8887)"/><path d="M402.857 283.339C403.38 283.339 403.903 283.339 404.443 283.339 406.151 283.339 407.86 283.35 409.574 283.361 410.764 283.361 411.955 283.366 413.146 283.366 416.274 283.372 419.401 283.389 422.529 283.4 425.723 283.416 428.917 283.422 432.112 283.428 438.372 283.444 444.633 283.472 450.893 283.5 450.91 286.327 450.921 289.154 450.932 291.981 450.938 292.944 450.943 293.906 450.949 294.869 450.954 296.249 450.96 297.629 450.96 299.009 450.965 299.844 450.971 300.673 450.977 301.53 450.893 303.445 450.893 303.445 450.181 304.157 448.65 304.229 447.12 304.246 445.59 304.246 445.111 304.246 444.633 304.252 444.137 304.252 443.091 304.252 442.045 304.257 441.004 304.257 438.778 304.257 436.558 304.274 434.332 304.285 430.192 304.313 426.046 304.335 421.905 304.335 419.028 304.335 416.151 304.352 413.269 304.38 412.178 304.385 411.082 304.391 409.985 304.385 408.444 304.374 406.908 304.391 405.372 304.413 404.498 304.413 403.619 304.419 402.723 304.419 399.523 305.02 398.343 306.16 396.045 308.431 394.559 311.403 395.082 315.203 395.823 318.359 397.047 320.284 398.171 320.607 400.319 321.252 401.026 321.603 401.026 321.603 401.744 321.965 403.502 322.043 405.25 322.082 407.008 322.087 408.099 322.104 409.19 322.126 410.28 322.143 411.989 322.165 413.697 322.187 415.4 322.198 425.172 322.265 434.616 323.106 442.345 329.8 443.086 330.73 443.803 331.676 444.482 332.649 444.087 333.106 443.687 333.568 443.28 334.035 439.073 339.021 435.656 344.119 432.373 349.745 431.828 349.183 431.288 348.621 430.726 348.042 426.38 343.824 421.978 343.245 416.179 343.184 415.083 343.162 413.987 343.145 412.89 343.123 411.171 343.095 409.457 343.067 407.737 343.05 397.347 342.922 388.733 341.698 381.003 333.996 374.782 326.467 373.262 317.986 373.964 308.431 375.555 300.317 379.105 293.194 386.073 288.486 391.56 285.342 396.457 283.316 402.857 283.339Z" fill="#99CA70" transform="matrix(1.00051 0 0 1 257.833 -27.8887)"/><path d="M482.947 222.241C480.538 223.849 478.684 224.261 475.869 224.912 465.891 227.311 455.946 230.032 446.619 234.35 445.768 234.729 445.768 234.729 444.9 235.118 428.795 242.342 414.153 251.518 401.187 263.55 400.08 264.551 398.939 265.509 397.77 266.427 396.246 267.668 395.032 268.87 393.775 270.367 391.827 272.654 389.818 274.852 387.765 277.045 378.805 286.883 371.248 298.041 363.579 308.893 357.041 318.136 350.352 327.207 342.622 335.499 341.787 336.445 340.958 337.396 340.129 338.348 339.728 338.804 339.327 339.261 338.916 339.734 337.997 340.78 337.09 341.832 336.178 342.883 329.394 350.607 321.853 356.779 313.417 362.567 312.95 362.333 312.477 362.099 311.992 361.854 312.382 361.454 312.772 361.053 313.172 360.641 325.309 347.78 334.725 332.738 343.924 317.724 371.454 272.81 371.454 272.81 390.347 257.144 391.07 256.521 391.788 255.903 392.506 255.275 397.064 251.34 401.655 247.595 406.73 244.323 407.487 243.833 408.243 243.349 409.023 242.843 424.949 232.826 441.666 226.816 460.153 223.666 460.637 223.582 461.121 223.499 461.622 223.41 468.757 222.197 475.741 222.08 482.947 222.241Z" fill="#35B0DF" transform="matrix(1.00051 0 0 1 257.833 -27.8887)"/><path d="M354.019 330.513C354.253 330.513 354.486 330.513 354.731 330.513 354.731 341.325 354.731 352.138 354.731 363.279 372.127 363.279 389.523 363.279 407.442 363.279 404.521 370.58 398.082 378.338 392.484 383.936 390.642 384.003 388.816 384.025 386.974 384.019 386.112 384.019 386.112 384.019 385.227 384.019 383.313 384.014 381.398 384.014 379.484 384.003 378.154 384.003 376.829 384.003 375.505 384.003 372.016 383.997 368.521 383.992 365.026 383.986 361.465 383.975 357.903 383.975 354.342 383.969 347.346 383.964 340.357 383.953 333.362 383.936 333.139 379.729 332.967 375.527 332.855 371.32 332.805 369.89 332.744 368.465 332.661 367.035 331.976 354.531 331.976 354.531 335.343 350.552 337.235 348.688 339.3 347.146 341.481 345.632 344.531 343.295 346.718 339.945 349.033 336.923 349.984 335.693 350.93 334.458 351.882 333.228 352.277 332.705 352.678 332.182 353.084 331.637 353.39 331.269 353.702 330.896 354.019 330.513Z" fill="#173C72" transform="matrix(1.00051 0 0 1 257.833 -27.8887)"/><path d="M518.563 307.719C518.563 308.186 518.563 308.659 518.563 309.143 518.173 309.143 517.778 309.149 517.372 309.149 499.503 309.978 481.311 318.999 467.989 330.513 467.293 331.114 466.592 331.715 465.874 332.338 464.021 333.963 462.229 335.643 460.465 337.363 459.497 338.292 458.5 339.194 457.499 340.09 452.819 344.826 452.524 348.749 452.485 355.093 452.418 362.867 449.791 368.666 445.156 374.826 443.447 377.275 442.073 379.846 440.654 382.467 436.074 390.809 429.897 397.303 423.113 403.881 422.646 404.348 422.173 404.821 421.688 405.305 412.818 411.221 400.13 413.391 389.634 413.853 391.532 411.955 393.702 411.421 396.179 410.559 411.749 404.882 422.673 395.455 434.109 383.658 434.944 382.795 435.795 381.938 436.647 381.087 436.163 381.293 435.679 381.498 435.183 381.71 430.487 383.585 426.714 384.247 421.688 383.936 426.658 368.165 434.015 352.633 444.482 339.773 444.811 339.366 445.145 338.96 445.484 338.543 458.311 322.861 475.095 310.473 495.568 307.201 503.198 306.567 510.983 306.617 518.563 307.719Z" fill="#2A89C8" transform="matrix(1.00051 0 0 1 257.833 -27.8887)"/><path d="M379.662 257.144C379.896 257.612 380.129 258.085 380.374 258.569 379.907 259.025 379.434 259.482 378.95 259.949 378.232 260.673 377.52 261.402 376.813 262.131 376.423 262.531 376.034 262.932 375.633 263.344 362.7 277.262 353.551 294.608 344.18 311.013 328.342 338.704 307.29 361.531 275.848 370.992 271.318 372.211 266.75 373.134 262.131 373.964 261.196 374.136 261.196 374.136 260.239 374.314 249.192 376.306 237.65 377.269 226.515 375.388 226.515 374.921 226.515 374.448 226.515 373.964 226.994 373.891 227.467 373.819 227.956 373.746 237.545 372.294 247.066 370.814 256.432 368.265 257.339 368.02 258.246 367.775 259.181 367.519 279.365 361.737 297.568 351.464 312.705 336.923 313.05 336.601 313.395 336.278 313.751 335.944 320.39 329.717 325.871 322.894 331.225 315.554 331.62 315.02 332.009 314.486 332.416 313.935 336.467 308.431 340.429 302.883 344.18 297.167 353.757 282.604 365.599 267.568 379.662 257.144Z" fill="#2B7CB9" transform="matrix(1.00051 0 0 1 257.833 -27.8887)"/><path d="M386.073 236.487C384.097 237.806 382.227 238.608 380.024 239.448 369.684 243.427 360.936 249.187 352.594 256.432 352.127 256.811 351.665 257.189 351.181 257.578 348.498 259.777 346.228 262.175 343.98 264.813 341.453 267.773 338.821 270.639 336.211 273.528 345.376 273.878 345.376 273.878 354.731 274.24 353.941 277.412 352.995 278.464 350.858 280.873 346.066 286.427 342.121 292.515 338.27 298.742 337.825 299.455 337.38 300.172 336.923 300.907 336.539 301.536 336.161 302.17 335.766 302.821 335.282 303.484 335.282 303.484 334.786 304.157 334.319 304.157 333.846 304.157 333.362 304.157 333.128 295.459 332.894 286.761 332.649 277.801 331.136 279.861 329.622 281.914 328.064 284.034 327.14 285.286 326.216 286.538 325.293 287.785 323.807 289.799 322.327 291.814 320.863 293.84 315.265 301.486 308.793 308.219 302.02 314.842 301.553 314.608 301.08 314.374 300.595 314.129 300.901 313.723 301.202 313.317 301.514 312.894 305.014 308.075 307.763 303.061 310.434 297.746 311.308 296.038 312.187 294.329 313.061 292.615 313.701 291.374 313.701 291.374 314.352 290.111 324.831 269.782 337.368 253.11 356.868 240.761 357.575 240.294 358.276 239.821 359.005 239.337 361.12 238.674 363.29 238.263 365.46 237.823 366.089 237.695 366.712 237.567 367.358 237.439 373.624 236.259 379.723 236.209 386.073 236.487Z" fill="#56B6B6" transform="matrix(1.00051 0 0 1 257.833 -27.8887)"/><path d="M518.963 278.447C519.525 278.447 520.088 278.447 520.666 278.447 522.441 278.453 524.222 278.458 525.997 278.469 527.211 278.475 528.424 278.475 529.637 278.48 532.592 278.486 535.552 278.497 538.507 278.514 538.507 278.747 538.507 278.981 538.507 279.226 537.951 279.321 537.394 279.41 536.821 279.504 518.346 282.637 500.098 286.984 483.659 296.322 482.797 296.789 481.929 297.251 481.066 297.713 468.929 304.313 458.3 313.462 448.756 323.389 447.343 322.71 445.935 322.026 444.527 321.341 443.742 320.963 442.958 320.579 442.145 320.19 440.208 319.116 440.208 319.116 439.496 317.691 443.202 312.944 446.87 308.598 451.605 304.869 452.229 304.374 452.846 303.879 453.486 303.367 471.756 289.198 495.496 278.286 518.963 278.447Z" fill="#A0D070" transform="matrix(1.00051 0 0 1 257.833 -27.8887)"/><path d="M425.25 361.142C425.962 363.279 425.962 363.279 424.727 365.783 424.12 366.813 423.508 367.831 422.89 368.844 422.562 369.384 422.239 369.923 421.9 370.485 410.258 389.529 395.561 404.604 373.964 411.716 373.19 412.022 372.416 412.334 371.615 412.651 367.853 413.347 364.837 412.439 361.186 411.449 360.151 411.182 360.151 411.182 359.094 410.915 357.397 410.481 355.705 410.035 354.019 409.579 356.017 408.243 357.436 407.676 359.706 406.997 372.339 403.068 382.539 398.483 392.484 389.634 393.073 389.145 393.663 388.66 394.27 388.154 401.877 381.704 407.425 373.591 412.656 365.182 413.853 363.279 413.853 363.279 414.565 362.567 416.363 362.283 418.149 362.032 419.952 361.81 420.459 361.743 420.965 361.682 421.488 361.615 422.74 361.454 423.998 361.298 425.25 361.142Z" fill="#2A7ABA" transform="matrix(1.00051 0 0 1 257.833 -27.8887)"/><path d="M328.376 292.048C328.609 292.048 328.843 292.048 329.088 292.048 330.323 308.553 330.323 308.553 327.674 312.582 325.882 314.486 324.029 316.083 321.965 317.691 321.124 318.637 320.306 319.6 319.516 320.585 310.29 331.097 299.377 337.875 286.349 342.622 285.386 342.984 285.386 342.984 284.413 343.351 277.434 345.833 270.689 346.417 263.305 346.367 261.852 346.361 260.4 346.367 258.947 346.378 258.024 346.378 257.1 346.373 256.148 346.373 255.314 346.373 254.479 346.367 253.616 346.367 251.541 346.189 250.35 345.844 248.597 344.759 249.504 344.608 250.411 344.464 251.346 344.314 270.695 340.997 288.542 334.347 303.445 321.252 303.806 320.941 304.168 320.629 304.541 320.306 308.798 316.628 312.727 312.805 316.266 308.431 316.561 308.064 316.862 307.696 317.168 307.318 320.88 302.716 324.497 298.108 327.647 293.099 327.886 292.754 328.125 292.404 328.376 292.048Z" fill="#35B2E1" transform="matrix(1.00051 0 0 1 257.833 -27.8887)"/><path d="M430.247 323.389C435.996 325.309 441.054 327.513 444.482 332.649 444.087 333.106 443.687 333.568 443.28 334.041 439.073 339.021 435.656 344.119 432.373 349.745 431.828 349.183 431.288 348.621 430.726 348.042 426.38 343.824 421.978 343.245 416.179 343.184 415.083 343.162 413.987 343.145 412.89 343.123 411.171 343.095 409.457 343.067 407.737 343.05 400.297 342.961 394.253 342.494 387.497 339.06 387.497 338.593 387.497 338.12 387.497 337.636 387.915 337.58 388.332 337.53 388.761 337.474 400.247 335.716 412.868 331.436 422.139 324.269 425.055 322.137 426.836 322.56 430.247 323.389Z" fill="#298BC8" transform="matrix(1.00051 0 0 1 257.833 -27.8887)"/><path d="M334.074 274.24C340.891 274.24 347.708 274.24 354.731 274.24 353.941 277.412 352.995 278.464 350.858 280.873 346.996 285.336 343.802 290.133 340.591 295.075 339.383 296.917 338.136 298.737 336.879 300.551 336.489 301.113 336.1 301.681 335.699 302.265 335.248 302.849 335.248 302.849 334.786 303.445 334.553 303.445 334.319 303.445 334.074 303.445 334.074 293.806 334.074 284.168 334.074 274.24Z" fill="#247BBA" transform="matrix(1.00051 0 0 1 257.833 -27.8887)"/><path d="M441.633 377.525C442.34 377.876 442.34 377.876 443.058 378.237 437.738 388.165 431.188 396.056 423.113 403.881 422.646 404.348 422.173 404.821 421.688 405.305 412.818 411.221 400.13 413.391 389.634 413.853 391.532 411.955 393.702 411.421 396.179 410.559 411.71 404.899 422.623 395.505 434.026 383.741 438.595 379.044 438.595 379.044 441.633 377.525Z" fill="#3DA8CB" transform="matrix(1.00051 0 0 1 257.833 -27.8887)"/><path d="M439.852 246.015C443.03 246.582 444.059 247.389 445.907 250.021 446.352 252.514 446.352 252.514 445.907 255.007 444.438 257.1 444.438 257.1 442.345 258.569 439.808 258.97 439.808 258.97 437.359 258.569 435.005 256.71 433.926 255.275 433.531 252.292 433.798 250.021 433.798 250.021 435.267 247.973 437.359 246.46 437.359 246.46 439.852 246.015Z" fill="#214376" transform="matrix(1.00051 0 0 1 257.833 -27.8887)"/><path d="M532.809 257.144C534.501 257.857 534.501 257.857 535.658 259.281 535.992 261.307 535.859 262.893 535.658 264.98 534.234 266.404 534.234 266.404 531.429 266.627 529.648 266.571 528.696 266.494 527.11 265.648 525.981 263.461 526.142 261.691 526.398 259.281 527.94 256.627 529.949 256.794 532.809 257.144Z" fill="#A4D279" transform="matrix(1.00051 0 0 1 257.833 -27.8887)"/><path d="M254.295 386.162C256.432 386.785 256.432 386.785 257.812 387.987 258.842 390.23 258.519 391.565 257.857 393.908 256.432 395.333 256.432 395.333 253.984 395.6 251.446 395.333 251.446 395.333 250.021 394.22 249.003 391.732 249.354 390.063 250.021 387.497 252.158 386.073 252.158 386.073 254.295 386.162Z" fill="#3689C8" transform="matrix(1.00051 0 0 1 257.833 -27.8887)"/><path d="M255.72 326.239C257.1 327.04 257.1 327.04 257.857 328.376 258.135 330.596 258.218 332.015 257.1 333.985 254.907 335.259 253.204 335.098 250.734 334.786 249.008 333.284 248.658 332.36 248.33 330.112 248.597 328.376 248.597 328.376 249.354 327.085 251.513 325.76 253.249 325.972 255.72 326.239Z" fill="#3DB4E4" transform="matrix(1.00051 0 0 1 257.833 -27.8887)"/><path d="M562.325 271.88C564.863 272.103 564.863 272.103 566.288 272.86 567.451 275.114 566.894 276.839 566.288 279.226 563.984 280.762 563.26 280.985 560.589 280.651 559.298 279.894 559.298 279.894 558.452 278.514 558.23 275.976 558.23 275.976 558.452 273.528 559.877 272.103 559.877 272.103 562.325 271.88Z" fill="#A7D47B" transform="matrix(1.00051 0 0 1 257.833 -27.8887)"/><path d="M257.144 422.401C257.612 422.634 258.085 422.868 258.569 423.113 255.586 426.151 252.592 429.179 249.598 432.206 248.574 433.236 247.562 434.265 246.543 435.3 245.085 436.786 243.622 438.261 242.152 439.741 241.702 440.203 241.245 440.665 240.778 441.143 240.138 441.783 240.138 441.783 239.487 442.44 239.114 442.818 238.736 443.197 238.352 443.586 237.038 444.61 235.975 444.905 234.35 445.195 237.923 440.848 241.846 436.881 245.831 432.913 246.955 431.789 248.079 430.659 249.203 429.529 249.927 428.811 250.645 428.094 251.368 427.376 252.014 426.725 252.659 426.079 253.327 425.411 255.007 423.825 255.007 423.825 257.144 422.401Z" fill="#264C7D" transform="matrix(1.00051 0 0 1 257.833 -27.8887)"/><path d="M509.303 294.185C509.748 296.188 509.748 296.188 510.015 298.458 509.308 299.516 509.308 299.516 508.59 300.595 504.406 299.972 504.406 299.972 503.604 299.171 503.827 296.678 503.827 296.678 504.316 294.185 506.214 293.233 507.283 293.706 509.303 294.185Z" fill="#9FCE7A" transform="matrix(1.00051 0 0 1 257.833 -27.8887)"/><path d="M218.323 359.539C220.104 359.717 220.104 359.717 221.529 361.142 221.707 362.923 221.707 362.923 221.529 364.703 220.104 366.128 220.104 366.128 218.323 366.306 216.543 366.128 216.543 366.128 215.118 364.703 214.94 362.923 214.94 362.923 215.118 361.142 216.543 359.717 216.543 359.717 218.323 359.539Z" fill="#9ED084" transform="matrix(1.00051 0 0 1 257.833 -27.8887)"/><path d="M252.871 353.306C256.115 353.702 256.115 353.702 257.144 354.731 257.233 356.868 257.233 356.868 257.144 359.005 256.432 359.717 256.432 359.717 254.34 359.851 252.158 359.717 252.158 359.717 250.734 358.293 250.967 355.944 251.179 354.998 252.871 353.306Z" fill="#3596CF" transform="matrix(1.00051 0 0 1 257.833 -27.8887)"/><path d="M527.823 310.568C529.693 310.835 529.693 310.835 531.384 311.28 531.657 312.938 531.891 314.602 532.097 316.266 531.384 316.979 531.384 316.979 529.292 317.112 527.11 316.979 527.11 316.979 525.686 315.554 525.92 313.206 526.131 312.26 527.823 310.568Z" fill="#3B9DD7" transform="matrix(1.00051 0 0 1 257.833 -27.8887)"/><path d="M508.59 223.666C511.835 224.061 511.835 224.061 512.864 225.09 512.892 226.515 512.892 227.94 512.864 229.364 511.206 229.637 509.542 229.871 507.878 230.077 507.166 229.364 507.166 229.364 507.032 227.272 507.166 225.09 507.166 225.09 508.59 223.666Z" fill="#3EABDF" transform="matrix(1.00051 0 0 1 257.833 -27.8887)"/><path d="M467.276 246.371C469.413 246.46 469.413 246.46 470.126 247.172 470.215 249.309 470.215 249.309 470.126 251.446 469.413 252.158 469.413 252.158 467.276 252.247 465.139 252.158 465.139 252.158 464.427 251.446 464.338 249.309 464.338 249.309 464.427 247.172 465.139 246.46 465.139 246.46 467.276 246.371Z" fill="#309DD7" transform="matrix(1.00051 0 0 1 257.833 -27.8887)"/><path d="M379.662 257.144C379.896 257.612 380.129 258.085 380.374 258.569 379.907 259.025 379.434 259.482 378.95 259.949 376.674 262.22 374.565 264.64 372.444 267.056 371.326 268.308 370.179 269.504 368.977 270.678 368.321 269.198 368.321 269.198 368.265 267.117 369.645 265.258 371.365 263.817 373.118 262.309 373.585 261.891 374.053 261.468 374.531 261.04 377.931 258.007 377.931 258.007 379.662 257.144Z" fill="#3786B4" transform="matrix(1.00051 0 0 1 257.833 -27.8887)"/><path d="M482.947 222.241C480.515 223.861 478.918 224.066 476.047 224.467 475.206 224.584 474.366 224.706 473.498 224.829 472.858 224.918 472.212 225.001 471.55 225.09 471.55 224.623 471.55 224.15 471.55 223.666 469.202 223.666 466.848 223.666 464.427 223.666 464.427 223.432 464.427 223.198 464.427 222.953 470.599 222.058 476.731 222.174 482.947 222.241Z" fill="#68C5E6" transform="matrix(1.00051 0 0 1 257.833 -27.8887)"/><path d="M235.063 373.251C235.063 373.719 235.063 374.192 235.063 374.676 239.058 374.91 243.054 375.143 247.172 375.388 247.172 375.622 247.172 375.856 247.172 376.1 244.662 376.123 242.158 376.134 239.648 376.145 238.942 376.151 238.235 376.156 237.511 376.162 233.761 376.173 230.205 376.045 226.515 375.388 226.515 374.921 226.515 374.448 226.515 373.964 229.426 373.574 232.124 373.251 235.063 373.251Z" fill="#74A7C8" transform="matrix(1.00051 0 0 1 257.833 -27.8887)"/><path d="M497.906 307.006C500.282 306.984 502.653 306.973 505.029 306.962 505.697 306.956 506.359 306.951 507.043 306.945 510.955 306.928 514.695 307.14 518.563 307.719 518.563 308.186 518.563 308.659 518.563 309.143 513.977 309.494 513.977 309.494 509.303 309.855 509.536 309.388 509.77 308.915 510.015 308.431 506.019 308.197 502.024 307.963 497.906 307.719 497.906 307.485 497.906 307.251 497.906 307.006Z" fill="#61AFD8" transform="matrix(1.00051 0 0 1 257.833 -27.8887)"/><path d="M334.074 274.24C340.891 274.24 347.708 274.24 354.731 274.24 354.497 275.18 354.264 276.121 354.019 277.089 353.312 277.44 353.312 277.44 352.594 277.801 352.594 276.861 352.594 275.921 352.594 274.952 346.484 274.952 340.374 274.952 334.074 274.952 334.074 274.719 334.074 274.485 334.074 274.24Z" fill="#3588BF" transform="matrix(1.00051 0 0 1 257.833 -27.8887)"/><path d="M400.319 409.579C400.319 410.047 400.319 410.52 400.319 411.004 398.126 413.118 396.357 413.452 393.374 413.63 392.673 413.675 391.972 413.725 391.248 413.775 390.714 413.797 390.185 413.825 389.634 413.853 391.332 412.156 392.723 411.716 394.977 410.915 395.672 410.664 396.374 410.414 397.091 410.152 398.894 409.579 398.894 409.579 400.319 409.579Z" fill="#4FAECD" transform="matrix(1.00051 0 0 1 257.833 -27.8887)"/><path d="M455.879 326.951C456.347 326.951 456.82 326.951 457.304 326.951 456.302 329.244 455.095 330.741 453.297 332.471 452.624 333.128 452.624 333.128 451.934 333.796 451.589 334.124 451.249 334.447 450.893 334.786 450.426 334.553 449.953 334.319 449.469 334.074 450.27 333.156 451.071 332.232 451.873 331.314 452.318 330.802 452.763 330.29 453.225 329.761 454.082 328.799 454.967 327.864 455.879 326.951Z" fill="#3C9ACE" transform="matrix(1.00051 0 0 1 257.833 -27.8887)"/><path d="M527.11 311.28C528.051 311.748 528.991 312.221 529.96 312.705 529.253 313.762 529.253 313.762 528.535 314.842 529.242 315.899 529.242 315.899 529.96 316.979 528.786 316.745 527.611 316.511 526.398 316.266 525.953 314.575 525.953 314.575 525.686 312.705 526.153 312.237 526.626 311.764 527.11 311.28Z" fill="#2C96D1" transform="matrix(1.00051 0 0 1 257.833 -27.8887)"/><path d="M216.543 461.578C217.249 461.812 217.951 462.045 218.68 462.29 218.329 462.635 217.978 462.975 217.611 463.331 217.155 463.782 216.699 464.232 216.231 464.694 215.775 465.139 215.324 465.585 214.851 466.046 213.638 467.215 213.638 467.215 212.981 468.701 212.514 468.701 212.041 468.701 211.557 468.701 211.968 466.314 212.692 465.184 214.45 463.537 214.84 463.164 215.229 462.797 215.63 462.413 216.081 462.001 216.081 462.001 216.543 461.578Z" fill="#23497C" transform="matrix(1.00051 0 0 1 257.833 -27.8887)"/><path d="M429.524 396.757C429.524 399.59 428.539 400.38 426.675 402.456 424.833 404.07 423.391 404.871 420.976 405.305 423.825 402.456 426.675 399.607 429.524 396.757Z" fill="#D8E9EF" transform="matrix(1.00051 0 0 1 257.833 -27.8887)"/><path d="M259.994 344.046C255.703 345.961 253.21 346.378 248.597 345.471 248.597 345.237 248.597 345.004 248.597 344.759 249.96 344.497 251.324 344.247 252.692 344.002 253.455 343.863 254.212 343.724 254.996 343.579 256.966 343.356 258.146 343.406 259.994 344.046Z" fill="#58C0E2" transform="matrix(1.00051 0 0 1 257.833 -27.8887)"/><path d="M235.063 373.251C236.237 373.251 237.411 373.251 238.624 373.251 238.624 373.485 238.624 373.719 238.624 373.964 240.973 374.197 243.327 374.431 245.747 374.676 245.747 374.91 245.747 375.143 245.747 375.388 241.986 375.388 238.224 375.388 234.35 375.388 234.584 374.681 234.818 373.98 235.063 373.251Z" fill="#1F72B1" transform="matrix(1.00051 0 0 1 257.833 -27.8887)"/><path d="M357.58 241.474C354.052 243.238 354.052 243.238 350.457 245.035 350.691 244.095 350.925 243.154 351.17 242.186 353.791 240.7 354.559 240.717 357.58 241.474Z" fill="#CEDDE6" transform="matrix(1.00051 0 0 1 257.833 -27.8887)"/><path d="M387.497 337.636C389.145 337.636 390.786 337.636 392.484 337.636 392.25 338.576 392.016 339.517 391.771 340.485 390.363 340.017 388.95 339.544 387.497 339.06 387.497 338.593 387.497 338.12 387.497 337.636Z" fill="#449BC2" transform="matrix(1.00051 0 0 1 257.833 -27.8887)"/><path d="M379.662 257.144C379.896 257.612 380.129 258.085 380.374 258.569 378.727 260.35 378.727 260.35 376.813 262.131 376.106 262.131 375.405 262.131 374.676 262.131 378.059 257.946 378.059 257.946 379.662 257.144Z" fill="#4C98BC" transform="matrix(1.00051 0 0 1 257.833 -27.8887)"/></g></svg>